<svg xmlns="http://www.w3.org/2000/svg" viewBox="0 0 200 40" width="200" height="40">
  <!-- Phone icon (lucide-react Phone path, scaled and positioned) -->
  <g transform="translate(8, 8)" fill="none" stroke="#2563EB" stroke-width="2" stroke-linecap="round" stroke-linejoin="round">
    <path d="M22 16.92v3a2 2 0 0 1-2.18 2 19.79 19.79 0 0 1-8.63-3.07 19.5 19.5 0 0 1-6-6 19.79 19.79 0 0 1-3.07-8.67A2 2 0 0 1 4.11 2h3a2 2 0 0 1 2 1.72 12.84 12.84 0 0 0 .7 2.81 2 2 0 0 1-.45 2.11L8.09 9.91a16 16 0 0 0 6 6l1.27-1.27a2 2 0 0 1 2.11-.45 12.84 12.84 0 0 0 2.81.7A2 2 0 0 1 22 16.92z"/>
  </g>
  <!-- Text -->
  <text x="40" y="26" font-family="'Plus Jakarta Sans', system-ui, sans-serif" font-weight="700" font-size="20" letter-spacing="-0.5">
    <tspan fill="#111827">Booster</tspan><tspan fill="#2563EB">Pay</tspan>
  </text>
</svg>
